Jump_normalized_pl06_filtered_grf
version=1
nRows=27
nColumns=37
inDegrees=yes
endheader
time		1_ground_force_vx		1_ground_force_vy		1_ground_force_vz		1_ground_force_px		1_ground_force_py		1_ground_force_pz		1_ground_torque_x		1_ground_torque_y		1_ground_torque_z		2_ground_force_vx		2_ground_force_vy		2_ground_force_vz		2_ground_force_px		2_ground_force_py		2_ground_force_pz		2_ground_torque_x		2_ground_torque_y		2_ground_torque_z		3_ground_force_vx		3_ground_force_vy		3_ground_force_vz		3_ground_force_px		3_ground_force_py		3_ground_force_pz		3_ground_torque_x		3_ground_torque_y		3_ground_torque_z		4_ground_force_vx		4_ground_force_vy		4_ground_force_vz		4_ground_force_px		4_ground_force_py		4_ground_force_pz		4_ground_torque_x		4_ground_torque_y		4_ground_torque_z		
0.257833		-0.000000		0.000000		0.000000		0.146963		0.000000		0.232437		0.000000		0.000000		-0.000000		-0.000000		0.000000		0.000000		-0.138296		0.000000		0.256471		0.000000		-0.000000		0.000000		18.932167		175.164551		268.460790		0.373924		1.309317		1.918211		-1.047786		-9.694296		-14.857674		-23.275321		419.907838		484.594781		-0.265935		1.309261		1.929087		-1.171472		21.134414		24.390208		
0.261066		-0.000000		0.000000		0.000000		0.146963		0.000000		0.232437		0.000000		0.000000		-0.000000		-0.000000		0.000000		0.000000		-0.138296		0.000000		0.256471		0.000000		-0.000000		0.000000		20.428505		166.331843		252.658211		0.373961		1.309322		1.918287		-1.139879		-9.281030		-14.097888		-22.714262		410.056220		486.239143		-0.265881		1.309293		1.929074		-1.153610		20.825915		24.695107		
0.264298		0.000000		-0.000000		-0.000000		0.146963		0.000000		0.232437		-0.000000		-0.000000		0.000000		-0.000000		-0.000000		-0.000000		-0.138296		0.000000		0.256471		-0.000000		0.000000		-0.000000		22.148796		157.122055		235.835536		0.374009		1.309287		1.918337		-1.247703		-8.851051		-13.285154		-22.110560		400.034148		488.240781		-0.265822		1.309317		1.929037		-1.133733		20.512016		25.034912		
0.267530		0.000000		-0.000000		-0.000000		0.146963		0.000000		0.232437		-0.000000		-0.000000		0.000000		-0.000000		-0.000000		-0.000000		-0.138296		0.000000		0.256471		-0.000000		0.000000		-0.000000		23.961202		147.514197		218.363924		0.374064		1.309218		1.918357		-1.364139		-8.398135		-12.431681		-21.450344		389.770987		490.623671		-0.265764		1.309338		1.928977		-1.111284		20.192980		25.417898		
0.270763		0.000000		-0.000000		-0.000000		0.146963		0.000000		0.232437		-0.000000		-0.000000		0.000000		-0.000000		-0.000000		-0.000000		-0.138296		0.000000		0.256471		-0.000000		0.000000		-0.000000		25.660607		137.320422		200.439732		0.374122		1.309129		1.918352		-1.476838		-7.903095		-11.535740		-20.732913		379.210704		493.338570		-0.265716		1.309361		1.928898		-1.086161		19.866199		25.845223		
0.273995		0.000000		-0.000000		-0.000000		0.146963		0.000000		0.232437		-0.000000		-0.000000		0.000000		0.000000		-0.000000		-0.000000		-0.138296		0.000000		0.256471		-0.000000		0.000000		-0.000000		27.007198		126.172969		182.008821		0.374178		1.309047		1.918336		-1.570055		-7.335020		-10.581018		-19.983338		368.352505		496.250593		-0.265682		1.309389		1.928804		-1.059426		19.528388		26.308970		
0.277227		0.000000		-0.000000		-0.000000		0.146963		0.000000		0.232437		-0.000000		-0.000000		0.000000		0.000000		-0.000000		-0.000000		-0.138296		0.000000		0.256471		-0.000000		0.000000		-0.000000		27.798239		113.589281		162.737732		0.374230		1.308992		1.918319		-1.629147		-6.656992		-9.537376		-19.248131		357.228619		499.183399		-0.265663		1.309425		1.928701		-1.033229		19.175839		26.795970		
0.280460		-0.000000		0.000000		0.000000		0.146963		0.000000		0.232437		0.000000		0.000000		-0.000000		0.000000		0.000000		-0.000000		-0.138296		0.000000		0.256471		0.000000		-0.000000		0.000000		27.936824		99.208148		142.199703		0.374277		1.308983		1.918309		-1.645408		-5.843103		-8.375194		-18.590186		345.903031		501.947084		-0.265658		1.309471		1.928585		-1.010696		18.805785		27.289490		
0.283692		-0.000000		0.000000		0.000000		0.146963		0.000000		0.232437		0.000000		0.000000		-0.000000		0.000000		0.000000		0.000000		-0.138296		0.000000		0.256471		0.000000		-0.000000		0.000000		27.454693		82.974432		120.098468		0.374323		1.309018		1.918307		-1.617808		-4.889400		-7.076992		-18.047240		334.470572		504.344724		-0.265660		1.309525		1.928453		-0.993765		18.417496		27.771629		
0.286924		-0.000000		0.000000		0.000000		0.146963		0.000000		0.232437		0.000000		0.000000		-0.000000		0.000000		0.000000		0.000000		-0.138296		0.000000		0.256471		0.000000		-0.000000		0.000000		26.527961		65.390052		96.619829		0.374367		1.309088		1.918309		-1.553255		-3.828721		-5.657284		-17.618762		323.035108		506.202389		-0.265668		1.309585		1.928303		-0.982412		18.012237		28.225572		
0.290157		-0.000000		0.000000		0.000000		0.146963		0.000000		0.232437		0.000000		0.000000		-0.000000		-0.000000		0.000000		0.000000		-0.138296		0.000000		0.256471		0.000000		-0.000000		0.000000		25.408746		47.525618		72.600896		0.374414		1.309175		1.918305		-1.457936		-2.727138		-4.165992		-17.267462		311.686817		507.360809		-0.265674		1.309648		1.928126		-0.974616		17.592314		28.636667		
0.293389		-0.000000		0.000000		0.000000		0.146963		0.000000		0.232437		0.000000		0.000000		-0.000000		-0.000000		0.000000		0.000000		-0.138296		0.000000		0.256471		0.000000		-0.000000		0.000000		24.351914		30.879209		49.527839		0.374463		1.309256		1.918284		-1.319103		-1.672970		-2.683253		-16.930539		300.477389		507.689076		-0.265678		1.309709		1.927919		-0.966922		17.160591		28.994727		
0.296621		0.000000		-0.000000		-0.000000		0.146963		0.000000		0.232437		-0.000000		-0.000000		0.000000		-0.000000		-0.000000		-0.000000		-0.138296		0.000000		0.256471		-0.000000		0.000000		-0.000000		23.531252		16.970434		29.219282		0.374512		1.309316		1.918240		-1.059409		-0.764795		-1.316642		-16.561939		289.380196		507.091835		-0.265682		1.309766		1.927685		-0.956794		16.717675		29.295064		
0.299854		0.000000		-0.000000		-0.000000		0.146963		0.000000		0.232437		-0.000000		-0.000000		0.000000		-0.000000		-0.000000		-0.000000		-0.138296		0.000000		0.256471		-0.000000		0.000000		-0.000000		22.997471		6.843441		13.278853		0.374558		1.309352		1.918171		-0.549100		-0.164416		-0.318730		-16.127490		278.326818		505.508062		-0.265688		1.309815		1.927430		-0.942337		16.262752		29.537106		
0.303086		0.000000		-0.000000		-0.000000		0.146963		0.000000		0.232437		-0.000000		-0.000000		0.000000		-0.000000		-0.000000		-0.000000		-0.138296		0.000000		0.256471		-0.000000		0.000000		-0.000000		22.691673		0.742863		2.549583		0.374600		1.309366		1.918080		-0.123909		-0.004152		-0.014107		-15.625146		267.235179		502.926209		-0.265699		1.309852		1.927163		-0.923424		15.793212		29.722252		
0.306318		0.000000		-0.000000		-0.000000		0.146963		0.000000		0.232437		-0.000000		-0.000000		0.000000		0.000000		-0.000000		-0.000000		-0.138296		0.000000		0.256471		-0.000000		0.000000		-0.000000		22.502899		-1.873260		-3.129081		0.374635		1.309379		1.917981		-0.089181		0.007434		0.012431		-15.054784		256.079057		499.369647		-0.265716		1.309876		1.926901		-0.899910		15.307295		29.850219		
0.309551		0.000000		-0.000000		-0.000000		0.146963		0.000000		0.232437		-0.000000		-0.000000		0.000000		0.000000		-0.000000		-0.000000		-0.138296		0.000000		0.256471		-0.000000		0.000000		-0.000000		22.332037		-2.091947		-4.831928		0.374668		1.309411		1.917884		-0.109201		0.010230		0.023628		-14.424807		244.908297		494.898580		-0.265738		1.309888		1.926654		-0.872037		14.805682		29.918616		
0.312783		-0.000000		0.000000		0.000000		0.146963		0.000000		0.232437		0.000000		0.000000		-0.000000		0.000000		0.000000		0.000000		-0.138296		0.000000		0.256471		0.000000		-0.000000		0.000000		22.134194		-1.094108		-4.036574		0.374699		1.309481		1.917801		-0.094797		0.004691		0.017295		-13.751792		233.834571		489.576142		-0.265762		1.309889		1.926435		-0.840498		14.291782		29.922570		
0.316015		-0.000000		0.000000		0.000000		0.146963		0.000000		0.232437		0.000000		0.000000		-0.000000		0.000000		0.000000		0.000000		-0.138296		0.000000		0.256471		0.000000		-0.000000		0.000000		21.927040		0.154427		-2.210726		0.374730		1.309602		1.917742		-0.085200		-0.000600		0.008590		-13.061018		222.996501		483.474110		-0.265784		1.309881		1.926248		-0.806596		13.771364		29.857418		
0.319247		-0.000000		0.000000		0.000000		0.146963		0.000000		0.232437		0.000000		0.000000		-0.000000		0.000000		0.000000		0.000000		-0.138296		0.000000		0.256471		0.000000		-0.000000		0.000000		21.771545		1.097932		-0.426614		0.374762		1.309764		1.917699		-0.097160		-0.004903		0.001896		-12.401278		212.517568		476.645867		-0.265803		1.309868		1.926089		-0.773179		13.249784		29.717384		
0.322480		-0.000000		0.000000		0.000000		0.146963		0.000000		0.232437		0.000000		0.000000		-0.000000		-0.000000		0.000000		0.000000		-0.138296		0.000000		0.256471		0.000000		-0.000000		0.000000		21.735576		1.580630		0.744080		0.374790		1.309948		1.917667		-0.112992		-0.008217		-0.003868		-11.825231		202.486183		469.150981		-0.265815		1.309851		1.925952		-0.743517		12.731403		29.498070		
0.325712		-0.000000		0.000000		0.000000		0.146963		0.000000		0.232437		0.000000		0.000000		-0.000000		-0.000000		0.000000		0.000000		-0.138296		0.000000		0.256471		0.000000		-0.000000		0.000000		21.861395		1.702178		1.166608		0.374806		1.310119		1.917629		-0.117817		-0.009174		-0.006287		-11.379938		192.977328		461.034231		-0.265816		1.309836		1.925833		-0.720610		12.219871		29.194024		
0.328944		0.000000		-0.000000		-0.000000		0.146963		0.000000		0.232437		-0.000000		-0.000000		0.000000		-0.000000		-0.000000		0.000000		-0.138296		0.000000		0.256471		-0.000000		0.000000		-0.000000		22.140050		1.659543		1.013274		0.374808		1.310245		1.917568		-0.113551		-0.008512		-0.005198		-11.083204		184.068892		452.349868		-0.265802		1.309824		1.925724		-0.705722		11.720566		28.803337		
0.332177		0.000000		-0.000000		-0.000000		0.146963		0.000000		0.232437		-0.000000		-0.000000		0.000000		-0.000000		-0.000000		-0.000000		-0.138296		0.000000		0.256471		-0.000000		0.000000		-0.000000		22.519729		1.605417		0.567356		0.374797		1.310304		1.917474		-0.107810		-0.007686		-0.002717		-10.922353		175.858513		443.139822		-0.265772		1.309816		1.925621		-0.698182		11.241281		28.326528		
0.335409		0.000000		-0.000000		-0.000000		0.146963		0.000000		0.232437		-0.000000		-0.000000		0.000000		-0.000000		-0.000000		-0.000000		-0.138296		0.000000		0.256471		-0.000000		0.000000		-0.000000		22.918206		1.600807		0.102532		0.374780		1.310277		1.917336		-0.103795		-0.007250		-0.000464		-10.873909		168.400796		433.444313		-0.265724		1.309809		1.925524		-0.696674		10.789174		27.770099		
0.338641		0.000000		-0.000000		-0.000000		0.146963		0.000000		0.232437		-0.000000		-0.000000		0.000000		0.000000		-0.000000		-0.000000		-0.138296		0.000000		0.256471		-0.000000		0.000000		-0.000000		23.245054		1.633208		-0.202892		0.374759		1.310176		1.917162		-0.100198		-0.007040		0.000875		-10.903301		161.689976		423.265248		-0.265663		1.309802		1.925433		-0.699214		10.368957		27.143420		
0.341874		0.000000		-0.000000		-0.000000		0.146963		0.000000		0.232437		-0.000000		-0.000000		0.000000		0.000000		-0.000000		-0.000000		-0.138296		0.000000		0.256471		-0.000000		0.000000		-0.000000		23.423685		1.664940		-0.290794		0.374741		1.310034		1.916974		-0.095888		-0.006816		0.001191		-10.969599		155.601531		412.556766		-0.265599		1.309791		1.925353		-0.703482		9.978750		26.457327		
